<svg width="453" height="382" viewBox="0 0 453 382" fill="none" xmlns="http://www.w3.org/2000/svg">
<path d="M102.129 351L105.063 360.328H114.558L106.877 366.093L109.811 375.422L102.129 369.657L94.4477 375.422L97.3818 366.093L89.7002 360.328H99.1952L102.129 351Z" fill="white"/>
<path d="M43.5631 76L47.0406 87.0557H58.2939L49.1898 93.8885L52.6673 104.944L43.5631 98.1115L34.459 104.944L37.9364 93.8885L28.8323 87.0557H40.0856L43.5631 76Z" fill="white"/>
<path d="M10.1646 171L12.4467 178.255H19.8317L13.8571 182.739L16.1392 189.995L10.1646 185.511L4.18999 189.995L6.47208 182.739L0.49749 178.255H7.88249L10.1646 171Z" fill="white"/>
<path d="M91.4806 0L92.6759 3.80041H96.5443L93.4147 6.14919L94.6101 9.94959L91.4806 7.60081L88.351 9.94959L89.5464 6.14919L86.4168 3.80041H90.2852L91.4806 0Z" fill="white"/>
<path d="M442.886 204L444.951 210.564H451.632L446.227 214.621L448.292 221.186L442.886 217.129L437.48 221.186L439.545 214.621L434.14 210.564H440.821L442.886 204Z" fill="white"/>
<path d="M54.6954 371L55.8908 374.8H59.7591L56.6296 377.149L57.8249 380.95L54.6954 378.601L51.5658 380.95L52.7612 377.149L49.6317 374.8H53.5L54.6954 371Z" fill="white"/>
</svg>
