<?xml version="1.0" encoding="iso-8859-1"?>
<svg xmlns="http://www.w3.org/2000/svg" width="120" height="31" fill="#fff"><path fill-rule="evenodd" d="M106.22 13.52s-1.66 3.23-3.43 4.82h-2.01c-1.72-1.53-3.43-4.82-3.43-4.82v10.11h-5.09V8.64h5.91l3.61 5.46 3.61-5.46h5.91v14.98h-5.09V13.52zm-60.38-1.53c-1.12 0-2.78.88-3.08 1.82.41.76 2.01 1.41 3.02 1.35 1.06 0 1.83-.59 1.83-1.59s-.77-1.59-1.77-1.59zm36.96 0c-1.12 0-2.78.88-3.08 1.82.41.76 2.01 1.41 3.02 1.35 1.06 0 1.83-.59 1.83-1.59s-.77-1.59-1.77-1.59zm-55.71 7.64c-2.01 0-3.73-2.41-4.02-3.88.3-1.47 2.01-3.94 4.02-3.88 1.95 0 2.84 1.7 2.84 3.88 0 2.12-.89 3.88-2.84 3.88zm36.85-7.35c-2.01 0-3.73 2.23-4.02 3.7.3 1.53 1.95 4.11 4.02 4.05 1.95 0 2.84-1.7 2.84-3.88 0-2.12-.89-3.88-2.84-3.88zm-16.86 7.76c1.01 0 2.78-.23 3.43-.59l2.13 2.7c-1.36 1.12-4.44 1.88-6.45 1.88-5.38 0-8.81-3.23-8.81-8.05 0-4.76 4.02-7.99 8.69-7.99 4.32 0 6.03 2.82 6.03 5.29 0 3.06-2.6 4.64-5.56 4.64-1.48 0-2.96-.41-4.02-1.29.18 1.88 2.25 3.41 4.55 3.41zm36.96 0c1.01 0 2.78-.23 3.43-.59l2.13 2.7c-1.36 1.12-4.44 1.88-6.45 1.88-5.38 0-8.81-3.23-8.81-8.05 0-4.76 4.02-7.99 8.69-7.99 4.32 0 6.03 2.82 6.03 5.29 0 3.06-2.6 4.64-5.56 4.64-1.48 0-2.96-.41-4.02-1.29.18 1.88 2.25 3.41 4.55 3.41zm-77.77 4c2.37 0 4.2-1.76 4.2-1.76v.94c0 2.29-1.42 3.53-5.03 3.53a9.8 9.8 0 0 1-3.43-.88l-1.6 2.41c1.36 1.12 3.9 2.12 6.39 2.17 4.97 0 8.4-2.64 8.4-7.58V8.64h-5.09v7.82c0 2.35-1.3 2.94-2.6 2.94s-2.42-.59-2.42-2.94V8.64H0v8.87c0 4 1.95 6.52 6.27 6.52zm65.59-8.23c0 5.76-3.9 8.23-7.45 8.23-1.66 0-2.96-.65-3.79-1.65v7.4h-5.09V8.58h2.9c.47.76.77 1.47 1.06 2.23h.18s2.13-2.82 5.56-2.82 6.62 2.7 6.62 7.82zM28.74 8.05c-3.43 0-5.26 2.47-5.26 2.47h-.18c-.35-2.59 1.18-4.17 5.09-4.52 2.31-.24 5.91-1.35 7.16-2.64L33.12 0c-1.89.94-3.96 1.23-6.51 1.59-3.02.41-8.52 2.23-8.58 10.87 0 8.34 4.55 11.63 8.87 11.63a8 8 0 0 0 8.04-8.23c0-5.11-3.08-7.82-6.21-7.82zm88.77 10.4c-1.66 0-3.19 2.06-3.43 3.35.24 1.23 1.72 3.35 3.43 3.35.3 0 .53-.06.77-.12 1.18-.35 1.72-1.7 1.72-3.23 0-1.7-.65-3.11-2.07-3.35h-.41z"/></svg>